<svg width="128" height="120" viewBox="0 0 128 120" fill="none" xmlns="http://www.w3.org/2000/svg">
<g clip-path="url(#clip0_1431_9183)">
<path d="M7.1758 99.591C4.80092 97.1919 3.49323 94.0027 3.49324 90.6105L3.49325 78.5483C3.49432 74.3123 5.55107 70.3901 8.99741 68.0566C10.6583 66.9333 12.5938 64.1483 12.5938 59.9972C12.5938 57.123 11.5915 54.3972 9.91354 52.7021C9.62093 52.4065 9.31237 52.1485 8.99742 51.9336C8.33454 51.4853 7.71102 50.9673 7.14603 50.3965C4.82648 48.0533 3.49646 44.7922 3.49327 41.4482L3.49434 29.3807C3.49328 22.378 9.13363 16.6801 16.0668 16.6801L74.5823 16.6812C77.8286 16.6801 80.8866 17.914 83.2317 20.1627C85.598 17.8066 88.7263 16.5103 92.0534 16.5113L112.756 16.5103C116.116 16.5102 119.272 17.8302 121.647 20.2293C124.022 22.6284 125.331 25.8186 125.328 29.2109L125.329 41.4418C125.332 45.6746 123.275 49.5989 119.826 51.9346C117.641 53.4136 116.23 56.578 116.229 59.995C116.229 62.8671 117.23 65.594 118.908 67.2891C119.202 67.5857 119.51 67.8437 119.826 68.0576C120.489 68.5058 121.113 69.0239 121.677 69.5936C123.998 71.9389 125.329 75.2033 125.329 78.5483L125.329 90.7802C125.327 97.7819 119.688 103.479 112.759 103.481L92.0534 103.481C88.7305 103.482 85.5991 102.187 83.2306 99.8285C80.8855 102.077 77.8275 103.311 74.5822 103.311L16.0656 103.311C12.7087 103.31 9.55068 101.99 7.1758 99.591Z" fill="#CCAAFF"/>
<path d="M115.876 78.5489C115.876 77.5299 115.401 76.5572 114.562 75.9896C109.917 72.8446 106.777 66.8651 106.776 59.9956C106.776 53.1272 109.917 47.1467 114.563 44.0027C115.401 43.4341 115.876 42.4614 115.876 41.4424L115.876 29.2104C115.876 27.4713 114.479 26.06 112.758 26.06L92.0541 26.06C91.2263 26.06 90.4325 26.391 89.8473 26.9822L85.4401 31.4365C84.2218 32.6672 82.246 32.6661 81.0287 31.4365L76.7886 27.1531C76.2034 26.562 75.4097 26.2309 74.5829 26.2298L16.0663 26.2298C14.3437 26.2309 12.9477 27.6411 12.9466 29.3814L12.9466 41.4435C12.9466 42.4625 13.4222 43.4352 14.2607 44.0027C18.9062 47.1478 22.0472 53.1262 22.0471 59.9967C22.0471 66.8651 18.9062 72.8435 14.2607 75.9886C13.4222 76.5561 12.9466 77.5289 12.9477 78.5489L12.9466 90.61C12.9477 92.3502 14.3437 93.7604 16.0663 93.7615L74.5829 93.7615C75.4107 93.7615 76.2034 93.4293 76.7886 92.8382L81.0276 88.5559C82.2459 87.3252 84.2207 87.3252 85.439 88.5559L89.8473 93.0091C90.4325 93.6003 91.2262 93.9313 92.053 93.9324L112.757 93.9324C114.479 93.9313 115.875 92.5211 115.876 90.7809L115.876 78.5489Z" fill="#B982FF"/>
<path d="M115.876 78.5489C115.876 77.5299 115.401 76.5572 114.562 75.9896C109.917 72.8446 106.777 66.8651 106.776 59.9956C106.776 53.1272 109.917 47.1467 114.563 44.0027C115.401 43.4341 115.876 42.4613 115.876 41.4424L115.876 29.2104C115.876 27.4713 114.479 26.06 112.758 26.06L92.0541 26.06C91.2263 26.06 90.4325 26.391 89.8473 26.9822L85.4401 31.4365C84.2218 32.6672 82.246 32.6661 81.0287 31.4365L76.7886 27.1531C76.2034 26.562 75.4097 26.2309 74.5829 26.2298L16.0663 26.2298C14.3437 26.2309 12.9477 27.6411 12.9466 29.3814L12.9466 41.4435C12.9466 42.4625 13.4222 43.4352 14.2607 44.0028C18.9062 47.1478 22.0472 53.1262 22.0471 59.9967C22.0471 66.8651 18.9062 72.8435 14.2607 75.9886C13.4222 76.5561 12.9466 77.5289 12.9477 78.5489L12.9466 90.61C12.9477 92.3502 14.3437 93.7604 16.0663 93.7615L74.5829 93.7615C75.4107 93.7615 76.2034 93.4293 76.7886 92.8382L81.0276 88.5559C82.2459 87.3252 84.2208 87.3252 85.439 88.5559L89.8473 93.0091C90.4325 93.6003 91.2262 93.9313 92.053 93.9324L112.757 93.9324C114.479 93.9313 115.875 92.5211 115.876 90.7809L115.876 78.5489Z" stroke="#955AF2" stroke-width="3" stroke-miterlimit="10"/>
<path d="M60.2869 67.2826L70.4281 60.9118C71.175 60.4432 71.1739 59.3436 70.427 58.875L60.288 52.5214C60.0252 52.357 59.8347 52.0936 59.7613 51.7895L56.914 40.0885C56.7033 39.2243 55.668 38.8857 54.9945 39.4586L45.8834 47.2352C45.6471 47.4373 45.3396 47.5373 45.0311 47.5136L33.1354 46.6344C32.2576 46.5688 31.617 47.4588 31.949 48.2822L36.4551 59.4404C36.5721 59.7306 36.5721 60.0552 36.4551 60.3454L31.949 71.5229C31.616 72.3473 32.2565 73.2352 33.1332 73.1707L45.0311 72.2914C45.3407 72.2667 45.6471 72.3678 45.8833 72.5698L54.9956 80.3454C55.668 80.9194 56.7033 80.5808 56.914 79.7166L59.7602 68.0146C59.8358 67.7104 60.023 67.4481 60.2869 67.2826Z" fill="#FFCE1F"/>
<path d="M60.2869 67.2826L70.4281 60.9118C71.175 60.4432 71.1739 59.3436 70.427 58.875L60.288 52.5214C60.0252 52.357 59.8347 52.0936 59.7613 51.7894L56.914 40.0885C56.7033 39.2243 55.668 38.8857 54.9945 39.4586L45.8834 47.2352C45.6471 47.4373 45.3396 47.5373 45.0311 47.5136L33.1354 46.6344C32.2576 46.5688 31.617 47.4588 31.949 48.2822L36.4551 59.4404C36.5721 59.7306 36.5721 60.0552 36.4551 60.3454L31.949 71.5229C31.616 72.3473 32.2565 73.2352 33.1332 73.1707L45.0311 72.2914C45.3407 72.2667 45.6471 72.3678 45.8833 72.5698L54.9956 80.3454C55.668 80.9194 56.7033 80.5808 56.914 79.7166L59.7602 68.0146C59.8358 67.7104 60.023 67.4481 60.2869 67.2826Z" stroke="#EABC00" stroke-width="2" stroke-miterlimit="10"/>
<path d="M86.9644 50.0662L86.9644 55.7071C86.9654 56.1639 86.5973 56.5358 86.144 56.5358L80.5611 56.5347C80.1079 56.5347 79.7408 56.1639 79.7408 55.706L79.7397 50.0662C79.7397 49.6083 80.1068 49.2375 80.5601 49.2375L86.144 49.2375C86.5973 49.2375 86.9644 49.6083 86.9644 50.0662Z" fill="white"/>
<path d="M79.7408 69.9242L79.7408 64.2833C79.7408 63.8254 80.1079 63.4546 80.5611 63.4546L86.144 63.4557C86.5973 63.4557 86.9644 63.8265 86.9644 64.2844L86.9654 69.9242C86.9654 70.3821 86.5984 70.7529 86.1451 70.7529L80.5611 70.7529C80.1079 70.7529 79.7408 70.3821 79.7408 69.9242Z" fill="white"/>
</g>
<defs>
<clipPath id="clip0_1431_9183">
<rect width="128" height="120" fill="white"/>
</clipPath>
</defs>
</svg>
