<svg width="40" height="40" viewBox="0 0 40 40" fill="none" xmlns="http://www.w3.org/2000/svg">
<rect x="0.5" y="0.5" width="39" height="39" rx="11.5" stroke="#8414EA"/>
<path d="M18.0156 26.75C18.5444 27.2168 19.2391 27.5 20 27.5C20.7608 27.5 21.4555 27.2168 21.9843 26.75M24.5 17C24.5 15.8065 24.0258 14.6619 23.1819 13.818C22.338 12.9741 21.1934 12.5 20 12.5C18.8065 12.5 17.6619 12.9741 16.818 13.818C15.9741 14.6619 15.5 15.8065 15.5 17C15.5 19.3176 14.9153 20.9045 14.2622 21.9541C13.7113 22.8394 13.4358 23.2821 13.4459 23.4056C13.4571 23.5423 13.4861 23.5944 13.5963 23.6762C13.6958 23.75 14.1444 23.75 15.0416 23.75H24.9583C25.8555 23.75 26.3041 23.75 26.4036 23.6762C26.5138 23.5944 26.5428 23.5423 26.554 23.4056C26.5641 23.2821 26.2886 22.8394 25.7377 21.9541C25.0846 20.9045 24.5 19.3176 24.5 17Z" stroke="#8414EA" stroke-width="1.5" stroke-linecap="round" stroke-linejoin="round"/>
</svg>
