<?xml version="1.0" encoding="utf-8"?>
<!-- Generator: Adobe Illustrator 27.5.0, SVG Export Plug-In . SVG Version: 6.00 Build 0)  -->
<svg version="1.1" id="Слой_1" xmlns="http://www.w3.org/2000/svg" xmlns:xlink="http://www.w3.org/1999/xlink" x="0px" y="0px"
	 viewBox="0 0 127.38 73.27" style="enable-background:new 0 0 127.38 73.27;" xml:space="preserve">
<style type="text/css">
	.st0{fill:#6A02C8;}
	.st1{fill:#780BDB;}
	.st2{fill:#9520FF;}
	.st3{fill:#FFFFFF;}
	.st4{fill-rule:evenodd;clip-rule:evenodd;fill:#FFFFFF;}
</style>
<g>
	<path class="st0" d="M112.72,30.49c-1.89,0-3.32,0.13-4.55,0.28c0.48-1.94,0.54-3.91,0.2-5.9c-0.5-2.82-1.83-5.62-3.97-8.33
		c-2.73-3.46-7.28-5.96-13.16-7.22c-3.04-0.65-6.43-0.98-10.08-0.98c-2.71,0-5.55,0.18-8.44,0.55c-6.96,0.87-14.33,2.8-21.33,5.58
		c-7.69,3.05-14.85,7.05-21.29,11.88c-1.41,1.05-1.94,2.83-1.5,4.43h-1.4h-4.74h-2.52h-2.28h-5.43c-0.91,0-1.71,0.65-1.91,1.54
		L8.02,43.18c-0.03,0.14-0.05,0.29-0.05,0.44c0,0.43,0.14,0.85,0.41,1.2c0.37,0.48,0.93,0.75,1.54,0.75h2.64h2.09h2.91h1.55h0.74
		c-0.11,1.24-0.06,2.5,0.16,3.75c0.49,2.82,1.83,5.63,3.97,8.36c2.74,3.47,7.3,5.98,13.2,7.25c3.05,0.65,6.45,0.98,10.11,0.98
		c2.72,0,5.57-0.18,8.46-0.55c6.98-0.88,14.38-2.82,21.38-5.61c4.73-1.88,9.25-4.11,13.54-6.68c0,0,0.8-0.44,2.62-1.61v-0.02
		c1.77-1.15,3.5-2.35,5.18-3.61c0.69-0.52,1.19-1.23,1.45-2.04c0,0,0,0,0.01,0c2.69,0,4.78-0.69,6.1-1.94
		c1.68,1.93,4.99,1.94,6.66,1.94c0.3,0,0.6,0,0.91-0.01l0,0v0c1.9-0.05,3.88-0.24,5.11-0.41c0.97-0.13,1.7-0.96,1.7-1.93v-0.01
		v-7.05v-0.01C120.41,32.69,117.54,30.49,112.72,30.49z"/>
	<path class="st1" d="M47.46,56.86c-3.32,0-6.16-0.27-8.48-0.81c-3.99-0.94-6.66-2.69-7.94-5.23c-1.78-3.53-0.52-8.21,3.37-12.5
		c5.49-6.05,15.69-11.78,27.3-15.31c5.33-1.62,10.5-2.63,14.97-2.92c5.07-0.32,8.99,0.28,11.65,1.8c3.49,2,4.75,5.57,3.43,9.8
		c-1.56,4.99-7.97,8.43-13.06,10.43c-5.68,2.23-12.7,3.84-18.32,4.21c-5.81,0.38-9.03-0.57-10.14-2.98
		c-0.56-1.22-0.73-3.18,1.64-5.61c7.28-7.49,23.24-7.57,23.92-7.57c1.39,0,2.52,1.13,2.52,2.53c0,1.39-1.13,2.52-2.52,2.52
		c-4,0-15.37,1.09-20.23,5.97c1.1,0.19,3.1,0.31,6.33-0.05c4.18-0.46,8.98-1.57,13.17-3.05c6.53-2.29,11.08-5.32,11.88-7.9
		c0.8-2.57-0.16-3.37-1.12-3.92c-3.64-2.08-12.74-1.45-22.64,1.57c-10.61,3.23-20.2,8.55-25.03,13.88c-1.79,1.97-3.55,4.95-2.6,6.84
		c0.57,1.12,2.15,2.01,4.58,2.58c3.48,0.81,8.46,0.91,14.81,0.28c6.22-0.62,16.82-2.92,26.48-6.68c10.81-4.21,17.92-9.25,20.02-14.2
		c1.34-3.15,0.66-6.38-2.08-9.86c-1.76-2.23-4.98-3.9-9.33-4.83c-4.58-0.99-10.22-1.11-16.29-0.34C60.08,17.2,45.7,23.1,34.28,31.67
		c-1.12,0.84-2.7,0.61-3.53-0.51c-0.84-1.12-0.61-2.7,0.51-3.53c6.33-4.75,13.36-8.67,20.92-11.67c6.87-2.73,14.11-4.62,20.94-5.48
		c6.63-0.83,12.85-0.69,17.98,0.41c5.51,1.18,9.74,3.48,12.24,6.64c1.97,2.5,3.2,5.06,3.65,7.61c0.43,2.48,0.13,4.95-0.88,7.35
		c-1.48,3.47-4.49,6.79-8.96,9.86c-3.69,2.53-8.36,4.91-13.88,7.06c-10.8,4.21-21.73,6.41-27.81,7.01
		C52.53,56.71,49.87,56.86,47.46,56.86L47.46,56.86z"/>
	<path class="st2" d="M81.44,17.2c3.33,0,6.17,0.28,8.51,0.82c4,0.94,6.68,2.7,7.95,5.25c1.78,3.55,0.52,8.24-3.38,12.55
		c-5.5,6.08-15.73,11.83-27.37,15.38c-5.34,1.63-10.53,2.64-15,2.93c-5.08,0.33-9.02-0.28-11.68-1.81c-3.51-2.01-4.76-5.6-3.44-9.84
		c1.56-5.01,7.98-8.46,13.1-10.47c5.69-2.24,12.73-3.86,18.37-4.23c5.82-0.38,9.05,0.57,10.17,2.99c0.56,1.22,0.73,3.19-1.65,5.64
		c-7.3,7.52-23.3,7.6-23.97,7.6c-1.4,0-2.53-1.13-2.53-2.53c0-1.4,1.13-2.53,2.53-2.53c4.01-0.01,15.42-1.1,20.28-6
		c-1.1-0.19-3.1-0.31-6.34,0.05c-4.19,0.46-9.01,1.58-13.21,3.06c-6.54,2.3-11.11,5.34-11.91,7.93c-0.8,2.58,0.16,3.38,1.12,3.93
		c3.65,2.09,12.77,1.46,22.7-1.57c10.64-3.25,20.26-8.59,25.1-13.94c1.8-1.99,3.56-4.98,2.61-6.87c-0.56-1.13-2.15-2.02-4.59-2.59
		c-3.49-0.82-8.49-0.91-14.85-0.28c-6.24,0.62-16.87,2.93-26.55,6.71c-10.84,4.23-17.97,9.29-20.08,14.26
		c-1.35,3.17-0.66,6.4,2.09,9.9c1.76,2.24,4.99,3.92,9.36,4.86c4.6,0.99,10.24,1.11,16.34,0.34c13.69-1.72,28.11-7.64,39.56-16.25
		c1.12-0.84,2.71-0.62,3.54,0.51c0.84,1.12,0.61,2.71-0.51,3.54c-6.34,4.77-13.4,8.71-20.97,11.72c-6.88,2.74-14.14,4.64-20.99,5.5
		c-6.65,0.84-12.88,0.69-18.03-0.41c-5.53-1.19-9.77-3.5-12.27-6.67c-1.97-2.51-3.21-5.08-3.65-7.64c-0.43-2.49-0.14-4.97,0.88-7.38
		c1.48-3.49,4.5-6.82,8.98-9.91c3.7-2.55,8.38-4.94,13.92-7.1c10.83-4.22,21.79-6.43,27.89-7.03C76.36,17.34,79.03,17.2,81.44,17.2
		L81.44,17.2z"/>
	<g>
		<path class="st3" d="M33.04,43.68l2.33-10.89c0.05-0.21-0.11-0.41-0.33-0.41h-4.73c-0.17,0-0.31,0.12-0.34,0.3l-0.73,4.78
			c-0.07,0.43-0.7,0.43-0.76,0l-0.74-4.78c-0.02-0.17-0.17-0.3-0.34-0.3h-4.74c-0.22,0-0.38,0.2-0.33,0.41l2.33,10.89
			c0.04,0.16,0.18,0.27,0.34,0.27h7.71C32.86,43.95,33.01,43.84,33.04,43.68L33.04,43.68z"/>
		<path class="st3" d="M48.81,32.72v3.72c0,0.19,0.16,0.34,0.35,0.34h2.37c0.19,0,0.34,0.15,0.34,0.34v6.5
			c0,0.19,0.16,0.34,0.34,0.34h4.78c0.18,0,0.34-0.15,0.34-0.34v-6.5c0-0.19,0.16-0.34,0.34-0.34h2.37c0.19,0,0.34-0.16,0.34-0.34
			v-3.72c0-0.18-0.15-0.34-0.34-0.34H49.15C48.96,32.38,48.81,32.54,48.81,32.72L48.81,32.72z"/>
		<path class="st3" d="M87.93,43.95h4.77c0.19,0,0.34-0.15,0.34-0.34V32.72c0-0.19-0.16-0.34-0.34-0.34h-4.77
			c-0.19,0-0.34,0.15-0.34,0.34v10.89C87.59,43.8,87.74,43.95,87.93,43.95z"/>
		<path class="st3" d="M101.05,32.38c-0.18,0.01-0.33,0.16-0.33,0.34v3.52c0,0.33-0.26,0.59-0.59,0.59c-0.3,0-0.55-0.22-0.59-0.52
			c-0.01-0.05-0.01-0.11-0.01-0.16v-0.01c-0.01-0.14-0.01-0.28,0-0.42v-3.01c0-0.19-0.16-0.34-0.34-0.34h-4.79
			c-0.19,0-0.34,0.16-0.34,0.34c0.01,0.63-0.01,1.47,0,2.27c0.01,0.99-0.01,2,0.69,2.8c0.59,0.68,1.59,0.99,3.02,0.99
			c0.9,0,1.64-0.08,2.28-0.27c0.33-0.1,0.67,0.16,0.67,0.5c0,0.27-0.2,0.49-0.46,0.53c-1.07,0.12-2.19,0.19-3.25,0.19
			c-0.64,0-1.27-0.02-1.86-0.07c-0.2-0.02-0.37,0.14-0.37,0.34v3.49c0,0.17,0.12,0.32,0.29,0.34c1.52,0.21,3.02,0.35,5.06,0.35
			c2.44,0,6.08-0.63,6.08-4.28v-7.18c0-0.19-0.15-0.34-0.34-0.34H101.05z"/>
		<path class="st4" d="M22.45,41.83l-1.97-9.18c-0.03-0.16-0.17-0.27-0.34-0.27h-7.71c-0.16,0-0.3,0.11-0.33,0.27L9.77,43.54
			c-0.05,0.21,0.11,0.41,0.33,0.41h4.73c0.17,0,0.31-0.12,0.34-0.3l0.09-0.52c0.02-0.16,0.16-0.27,0.31-0.27h1.45
			c0.16,0,0.29,0.11,0.31,0.27l0.08,0.52c0.02,0.17,0.17,0.3,0.34,0.3h4.74c0.22,0,0.38-0.2,0.33-0.41L22.45,41.83z M16.3,38.26
			c0.49,0,0.88,0.4,0.88,0.88v0.59c0,0.49-0.4,0.88-0.88,0.88h-0.01c-0.44,0-0.82-0.33-0.87-0.77c-0.03-0.26-0.03-0.54,0.01-0.81
			v-0.01C15.48,38.59,15.86,38.26,16.3,38.26L16.3,38.26z"/>
		<path class="st4" d="M36.55,34.54v1.75c0,0.21,0.18,0.36,0.38,0.34c0.59-0.06,1.22-0.08,1.85-0.08c0.85,0,1.72,0.04,2.57,0.12
			c0.23,0.02,0.46,0.05,0.69,0.07c0.26,0.03,0.46,0.25,0.46,0.52c0,0.35-0.33,0.6-0.67,0.5c-0.44-0.12-0.94-0.21-1.5-0.25
			c-0.25-0.02-0.5-0.02-0.78-0.02c-2.56,0-3.77,1-3.77,3.26c0,1,0.29,1.76,0.92,2.3c0.04,0.04,0.09,0.07,0.12,0.1
			c0.92,0.7,2.47,1,4.82,1.02h0.22c1.95,0,4.29-0.2,5.82-0.4c0.17-0.02,0.3-0.17,0.3-0.34v-7.06c0-0.77-0.17-1.41-0.44-1.94
			c-0.22-0.4-0.5-0.74-0.83-1.02c-1.28-1.08-3.28-1.33-4.81-1.33h-0.17c-0.25,0.01-0.48,0.01-0.71,0.01
			c-1.6,0.03-2.88,0.17-4.17,0.35c-0.17,0.02-0.3,0.17-0.3,0.34L36.55,34.54L36.55,34.54z M41.92,39.15c0.49,0,0.88,0.39,0.88,0.88
			v0.59c0,0.49-0.39,0.88-0.88,0.88h-0.01c-0.44,0-0.82-0.33-0.87-0.77c-0.03-0.27-0.03-0.55,0.01-0.82
			C41.1,39.48,41.47,39.15,41.92,39.15L41.92,39.15z"/>
		<path class="st4" d="M61.72,33.82v2.46c0,0.21,0.18,0.36,0.38,0.34c0.59-0.06,1.22-0.08,1.85-0.08c0.35,0,0.7,0.01,1.06,0.02
			c0.55,0.02,1.1,0.06,1.65,0.11c0.18,0.02,0.37,0.04,0.55,0.06c0.26,0.03,0.46,0.25,0.46,0.52c0,0.35-0.33,0.6-0.66,0.5
			c-0.64-0.18-1.38-0.27-2.28-0.27c-0.39,0-0.75,0.02-1.08,0.07c-0.31,0.04-0.59,0.11-0.84,0.19c-1.25,0.43-1.84,1.4-1.84,3
			c0,0.16,0.01,0.31,0.02,0.46c0.08,0.82,0.39,1.44,0.97,1.91c0.94,0.74,2.57,1.06,5.09,1.06c1.88,0,4.12-0.18,5.64-0.38
			c0.06-0.01,0.11-0.02,0.17-0.02c0.1-0.01,0.19-0.07,0.24-0.15c0.04-0.06,0.06-0.12,0.06-0.19v-7.06c0-0.38-0.04-0.74-0.11-1.06
			c-0.15-0.62-0.43-1.13-0.8-1.54c-0.39-0.43-0.88-0.76-1.43-1c-1.18-0.53-2.59-0.67-3.74-0.67c-2.04,0-3.54,0.15-5.06,0.36
			c-0.17,0.02-0.3,0.17-0.3,0.34L61.72,33.82L61.72,33.82z M67.09,39.16c0.49,0,0.88,0.39,0.88,0.88v0.59
			c0,0.49-0.39,0.88-0.88,0.88c-0.44,0-0.82-0.33-0.87-0.77c-0.01-0.1-0.02-0.19-0.02-0.3c-0.01-0.17,0.01-0.35,0.02-0.52
			C66.27,39.49,66.65,39.15,67.09,39.16L67.09,39.16z"/>
		<path class="st4" d="M74.39,32.89v10.72c0,0.19,0.16,0.34,0.34,0.34h4.77c0.19,0,0.34-0.15,0.34-0.34v-3.27
			c0-0.18,0.16-0.34,0.34-0.34h0.08c0.07,0,0.14,0.02,0.19,0.06c0.09,0.06,0.15,0.16,0.16,0.26l0.06,0.91l0.15,2.39
			c0.01,0.18,0.16,0.33,0.34,0.33h4.89c0.19,0,0.34-0.16,0.34-0.34v-1.47c0-1.31-0.94-2.42-2.22-2.65h0.01l-0.02-0.01v-0.31
			c1.68-0.37,2.41-1.28,2.43-3.1v-0.05c0-1.56-0.52-2.59-1.74-3.19c-0.98-0.48-2.4-0.68-4.38-0.68c-0.52,0-1.07,0.01-1.62,0.04
			c-0.24,0.01-0.49,0.02-0.73,0.04c-1.27,0.07-2.5,0.2-3.43,0.33C74.52,32.58,74.39,32.72,74.39,32.89z M79.68,36.12
			c0.14-0.32,0.46-0.54,0.83-0.54h0.02c0.06,0,0.12,0.01,0.19,0.02c0.39,0.09,0.7,0.42,0.72,0.84c0.01,0.23,0.01,0.46,0,0.69v0.01
			c-0.03,0.48-0.43,0.85-0.91,0.85h-0.02c-0.5,0-0.91-0.4-0.91-0.91v-0.59C79.6,36.36,79.63,36.24,79.68,36.12L79.68,36.12z"/>
		<path class="st4" d="M107.55,32.79v3.49c0,0.21,0.17,0.36,0.38,0.34c0.59-0.06,1.22-0.08,1.85-0.08c1.07,0,2.19,0.06,3.25,0.19
			c0.27,0.03,0.46,0.25,0.46,0.52c0,0.35-0.33,0.6-0.67,0.5c-0.64-0.18-1.38-0.27-2.27-0.27c-2.56,0-3.77,1-3.77,3.26
			c0,2.47,1.72,3.43,6.08,3.43c1.95,0,4.29-0.2,5.82-0.4c0.17-0.02,0.3-0.17,0.3-0.34v-7.06c0-3.65-3.65-4.28-6.08-4.28
			c-2.03,0-3.54,0.15-5.06,0.36C107.67,32.48,107.55,32.63,107.55,32.79z M112.92,39.15c0.49,0,0.88,0.39,0.88,0.88v0.59
			c0,0.49-0.39,0.88-0.88,0.88h-0.01c-0.44,0-0.83-0.33-0.87-0.77c-0.03-0.27-0.03-0.55,0.01-0.82
			C112.1,39.48,112.47,39.15,112.92,39.15L112.92,39.15z"/>
	</g>
</g>
</svg>
